<?xml version="1.0" standalone="no"?>
<!DOCTYPE svg PUBLIC "-//W3C//DTD SVG 20010904//EN"
 "http://www.w3.org/TR/2001/REC-SVG-20010904/DTD/svg10.dtd">
<svg version="1.0" xmlns="http://www.w3.org/2000/svg"
 width="1500.000000pt" height="1500.000000pt" viewBox="0 0 1500.000000 1500.000000"
 preserveAspectRatio="xMidYMid meet">

<g transform="translate(0.000000,1500.000000) scale(0.100000,-0.100000)"
fill="#000000" stroke="none">
<path d="M7155 12484 c-663 -52 -1250 -207 -1812 -479 -834 -403 -1516 -999
-2017 -1762 -247 -376 -419 -731 -561 -1158 -174 -521 -243 -927 -252 -1492
-6 -329 2 -483 38 -763 135 -1049 622 -2047 1376 -2820 248 -255 494 -459 797
-661 671 -448 1383 -711 2197 -811 162 -20 230 -22 579 -22 427 0 581 12 899
70 1016 184 1964 691 2686 1435 746 770 1232 1772 1364 2814 33 259 41 385 41
665 0 583 -74 1045 -255 1585 -142 427 -314 782 -561 1158 -501 763 -1183
1359 -2017 1762 -495 239 -1004 387 -1572 456 -135 16 -243 21 -525 24 -195 1
-377 1 -405 -1z m547 -484 c475 -22 793 -77 1163 -202 424 -142 795 -323 1155
-563 254 -169 440 -326 700 -592 235 -238 379 -414 532 -648 276 -420 491
-895 618 -1364 177 -654 177 -1608 0 -2262 -102 -378 -270 -779 -475 -1134
-68 -118 -209 -336 -273 -420 -225 -297 -583 -661 -877 -890 -518 -405 -1295
-755 -1905 -859 -544 -93 -1136 -93 -1680 0 -424 72 -955 272 -1400 525 -147
84 -320 195 -320 206 0 12 1109 1115 1147 1141 43 29 99 40 153 29 41 -8 63
-27 257 -222 122 -122 244 -234 286 -263 91 -63 232 -134 328 -166 224 -73
526 -75 760 -6 90 27 268 117 359 181 253 179 441 481 495 793 13 76 15 273
15 1432 0 943 3 1358 11 1395 15 69 70 123 140 138 32 7 222 11 517 11 597 0
662 9 900 129 249 126 428 304 552 551 92 184 130 348 130 560 0 212 -38 376
-130 560 -127 252 -306 429 -564 556 -158 78 -334 124 -477 124 l-59 0 0 -400
c0 -253 -4 -418 -11 -451 -15 -69 -70 -123 -140 -138 -35 -8 -680 -11 -2109
-11 -1429 0 -2074 3 -2109 11 -70 15 -125 69 -140 138 -7 33 -11 198 -11 451
l0 400 -57 0 c-149 0 -329 -48 -490 -129 -248 -125 -428 -303 -550 -546 -46
-90 -103 -244 -103 -276 0 -10 -7 -25 -16 -33 -23 -23 -402 -24 -410 -1 -11
27 187 336 329 513 240 299 582 634 872 854 256 194 684 431 1020 566 557 223
885 288 1630 320 17 1 123 -3 237 -8z m-2942 -2166 c5 -185 8 -215 28 -264 51
-126 156 -232 279 -282 l58 -23 2375 0 2375 0 58 23 c132 54 246 176 287 310
17 54 20 93 20 252 0 123 4 191 11 195 14 9 42 -17 101 -95 168 -220 199 -522
79 -773 -79 -166 -241 -317 -401 -375 -157 -57 -129 -55 -790 -61 -614 -6
-615 -6 -673 -30 -132 -52 -246 -174 -287 -307 -20 -65 -20 -86 -20 -1483 0
-939 -4 -1445 -11 -1501 -22 -179 -93 -325 -218 -450 -91 -91 -171 -141 -288
-181 -161 -54 -325 -54 -486 0 -148 51 -189 82 -482 372 -148 147 -292 281
-320 298 -76 48 -162 71 -265 71 -109 0 -194 -25 -281 -82 -43 -28 -276 -253
-709 -685 -389 -387 -653 -643 -664 -643 -21 0 -305 277 -433 422 -381 433
-685 961 -883 1534 -136 394 -198 737 -220 1222 -20 426 30 957 121 1302 61
232 205 634 233 652 6 4 156 8 333 8 279 0 324 -2 337 -16 9 -8 16 -23 16 -33
0 -68 114 -317 201 -441 178 -252 487 -445 790 -495 124 -20 268 -20 317 1 89
37 142 120 142 224 0 80 -22 132 -77 181 -50 46 -81 55 -213 68 -282 27 -515
185 -631 428 -110 230 -92 520 45 726 50 75 116 149 130 144 7 -2 13 -71 16
-213z"/>
</g>
</svg>
